<?xml version="1.0" encoding="UTF-8"?>
<svg width="569px" height="484px" viewBox="0 0 569 484" version="1.1" xmlns="http://www.w3.org/2000/svg" xmlns:xlink="http://www.w3.org/1999/xlink">
    <!-- Generator: Sketch 39.1 (31720) - http://www.bohemiancoding.com/sketch -->
    <title>Slice</title>
    <desc>Created with Sketch.</desc>
    <defs>
        <linearGradient x1="54.0666324%" y1="61.4484476%" x2="68.2317308%" y2="97.3965798%" id="linearGradient-1">
            <stop stop-color="#A7A9AC" offset="0%"></stop>
            <stop stop-color="#FFFFFF" stop-opacity="0" offset="100%"></stop>
        </linearGradient>
        <linearGradient x1="0.0129543952%" y1="49.9748227%" x2="100.002512%" y2="49.9748227%" id="linearGradient-2">
            <stop stop-color="#D1D3D4" offset="0%"></stop>
            <stop stop-color="#A7A9AC" offset="100%"></stop>
        </linearGradient>
        <linearGradient x1="0.354463327%" y1="50.0364602%" x2="100.669969%" y2="50.0364602%" id="linearGradient-3">
            <stop stop-color="#D1D3D4" offset="0%"></stop>
            <stop stop-color="#A7A9AC" offset="100%"></stop>
        </linearGradient>
        <linearGradient x1="0.531319843%" y1="49.9783539%" x2="100.341891%" y2="49.9783539%" id="linearGradient-4">
            <stop stop-color="#F1F2F2" offset="0%"></stop>
            <stop stop-color="#D1D3D4" offset="100%"></stop>
        </linearGradient>
        <linearGradient x1="0.00327120838%" y1="49.9612066%" x2="100.03497%" y2="49.9612066%" id="linearGradient-5">
            <stop stop-color="#A7A9AC" offset="0%"></stop>
            <stop stop-color="#D1D3D4" offset="100%"></stop>
        </linearGradient>
        <linearGradient x1="-0.0543151227%" y1="49.821573%" x2="99.9532858%" y2="49.821573%" id="linearGradient-6">
            <stop stop-color="#A7A9AC" offset="0%"></stop>
            <stop stop-color="#D1D3D4" offset="100%"></stop>
        </linearGradient>
        <linearGradient x1="0.0130666667%" y1="50.0033497%" x2="99.9854%" y2="50.0033497%" id="linearGradient-7">
            <stop stop-color="#F1F2F2" offset="0%"></stop>
            <stop stop-color="#D1D3D4" offset="100%"></stop>
        </linearGradient>
        <linearGradient x1="7.75481818%" y1="-3.50470756%" x2="110.835909%" y2="77.4610363%" id="linearGradient-8">
            <stop stop-color="#FFDE17" offset="0%"></stop>
            <stop stop-color="#F7941E" offset="100%"></stop>
        </linearGradient>
        <linearGradient x1="50.2784337%" y1="50.4836792%" x2="62.5503614%" y2="79.4013094%" id="linearGradient-9">
            <stop stop-color="#A7A9AC" offset="0%"></stop>
            <stop stop-color="#FFFFFF" stop-opacity="0" offset="100%"></stop>
        </linearGradient>
        <linearGradient x1="0.103836656%" y1="50.0503709%" x2="100.045293%" y2="50.0503709%" id="linearGradient-10">
            <stop stop-color="#D1D3D4" offset="0%"></stop>
            <stop stop-color="#A7A9AC" offset="100%"></stop>
        </linearGradient>
        <linearGradient x1="0.0747321212%" y1="50.0623364%" x2="99.9717316%" y2="50.0623364%" id="linearGradient-11">
            <stop stop-color="#F1F2F2" offset="0%"></stop>
            <stop stop-color="#D1D3D4" offset="100%"></stop>
        </linearGradient>
        <linearGradient x1="49.8908531%" y1="45.4071651%" x2="49.8908531%" y2="100.35514%" id="linearGradient-12">
            <stop stop-color="#EE2A7B" offset="0%"></stop>
            <stop stop-color="#92278F" stop-opacity="0" offset="100%"></stop>
        </linearGradient>
        <linearGradient x1="100.127069%" y1="56.9018764%" x2="0.0586241276%" y2="43.0301086%" id="linearGradient-13">
            <stop stop-color="#FFBB3E" offset="0%"></stop>
            <stop stop-color="#C32DCA" offset="100%"></stop>
        </linearGradient>
    </defs>
    <g id="Page-1" stroke="none" stroke-width="1" fill="none" fill-rule="evenodd">
        <g id="index-presentation1" transform="translate(52.000000, 43.000000)">
            <path d="M452.5,331.7 L302.5,245.1 L206.1,300.8 C204.8,301.5 204.1,302.8 204.1,304.1 C204,305.5 204.1,310 204.1,311.3 C204.1,312.7 204.8,314 206.2,314.8 L343.1,393.8 C347.4,396.3 352.6,396.3 356.8,393.8 L449.1,340.5 C451.2,339.3 452.5,337 452.5,334.5 L452.5,331.7 L452.5,331.7 Z" id="Shape" fill="url(#linearGradient-1)"></path>
            <path d="M426.4,200.9 C426.4,197.5 424.6,194.3 421.6,192.6 L282.6,112.4 C280.9,111.4 279,111.8 277.8,112.9 C277.5,113.2 276.5,114.2 276.3,114.4 C275.6,115.1 275.1,116.1 275.1,117.3 L275.1,228.5 L425.1,315.1 L425.1,315.1 C425.9,314.3 426.4,313.1 426.4,311.9 L426.4,200.9 L426.4,200.9 Z" id="Shape" fill="url(#linearGradient-2)"></path>
            <path d="M425.1,315.3 L275.1,228.7 L178.7,284.4 C177.4,285.1 176.7,286.4 176.7,287.7 C176.6,289.1 176.7,293.6 176.7,294.9 C176.7,296.3 177.4,297.6 178.8,298.4 L315.7,377.4 C320,379.9 325.2,379.9 329.4,377.4 L421.7,324.1 C423.8,322.9 425.1,320.6 425.1,318.1 L425.1,315.3 L425.1,315.3 Z" id="Shape" fill="url(#linearGradient-3)"></path>
            <path d="M275.1,228.8 L178.7,284.5 C176,286.1 176,290.1 178.7,291.6 L315.6,370.6 C319.9,373.1 325.1,373.1 329.3,370.6 L425,315.3 L275.1,228.8 L275.1,228.8 Z" id="Shape" fill="url(#linearGradient-4)"></path>
            <path d="M404.4,317.7 C406.2,316.6 406.2,314 404.4,312.9 L276.4,239 C275.6,238.5 274.5,238.5 273.7,239 L223,268.2 C222.1,268.7 222.1,270.1 223,270.6 L352.4,345.2 C353.7,345.9 355.2,345.9 356.5,345.2 L404.4,317.7 L404.4,317.7 Z" id="Shape" fill="#D1D3D4"></path>
            <path d="M223,269.1 L273.7,239.9 C274.5,239.4 275.6,239.4 276.4,239.9 L404.4,313.8 C405.2,314.2 405.6,315 405.7,315.8 C405.9,314.7 405.4,313.6 404.4,313 L276.4,239.1 C275.6,238.6 274.5,238.6 273.7,239.1 L223,268.2 C222.4,268.5 222.2,269.2 222.4,269.8 C222.5,269.5 222.7,269.3 223,269.1 L223,269.1 Z" id="Shape" fill="url(#linearGradient-5)"></path>
            <path d="M299.5,319.8 L264,299.3 C263.6,299.1 263.1,299.1 262.6,299.3 L237.7,313.6 C236.8,314.1 236.8,315.5 237.7,316 L272.5,336.1 C273.3,336.6 274.4,336.6 275.2,336.1 L299.4,322.2 C300.4,321.6 300.4,320.3 299.5,319.8 L299.5,319.8 Z" id="Shape" fill="#D1D3D4"></path>
            <path d="M237.7,314.4 L262.6,300.1 C263,299.9 263.5,299.9 264,300.1 L299.5,320.6 C299.8,320.8 300,321.1 300.1,321.4 C300.3,320.8 300.1,320.1 299.5,319.8 L264,299.3 C263.6,299.1 263.1,299.1 262.6,299.3 L237.7,313.6 C237.1,313.9 236.9,314.6 237.1,315.2 C237.2,314.9 237.4,314.6 237.7,314.4 L237.7,314.4 Z" id="Shape" fill="url(#linearGradient-6)"></path>
            <path d="M425.1,315 L425.1,202.2 C425.1,198.8 423.3,195.6 420.3,193.9 L281.3,113.7 C278.6,112.1 275.1,114.1 275.1,117.3 L275.1,228.5 L425.1,315 L425.1,315 Z" id="Shape" fill="url(#linearGradient-7)"></path>
            <polygon id="Shape" fill="#D96197" points="282 224.5 282 122 418.200012 200.700012 418.200012 303.100006"></polygon>
            <polygon id="Shape" fill="#F1F2F2" opacity="0.5" points="277.200012 229.299988 277.200012 126.799988 413.400024 205.5 413.400024 307.899994"></polygon>
            <path d="M354.2,190.6 L354,190.5 C349.2,188 346.4,194 343.5,200.5 C340.9,206.1 338.3,211.9 334.9,210.1 C334.9,210.1 334.9,210.1 334.8,210.1 C333.2,209.2 330.9,204.7 328.9,200.8 C326.4,195.9 324,191.2 321.4,189.7 C321.2,189.6 321,189.5 320.8,189.4 C316.6,187.8 314.2,193.2 311.9,198.4 C310.2,202.2 308.5,206.1 306.3,206.6 C305.2,206.8 301.9,205.2 298.8,203.4 C297.5,202.6 296.2,201.8 295.1,201.2 L295,203.6 C295.6,204 297.1,205 298.9,206 C302,207.8 305.8,209.7 307.5,209.4 C310.1,208.8 311.9,204.8 313.8,200.6 C315.8,196.1 318.1,191 321.1,192.1 C321.2,192.1 321.3,192.2 321.3,192.2 C322.9,193.1 325.2,197.6 327.2,201.5 C329.7,206.4 332.1,211.2 334.7,212.7 C334.7,212.7 334.8,212.7 334.8,212.8 C339.6,215.4 342.4,209.3 345.3,202.8 C347.9,197.2 350.5,191.4 353.9,193.2 C353.9,193.2 354,193.2 354,193.3 C358.4,195.8 360.4,207.3 362.4,218.4 C364.7,231 366.8,242.9 372.6,247.3 C372.8,247.4 373,247.5 373.1,247.6 C376.4,249.5 377.7,244.7 379.1,239.6 C380.2,235.8 381.5,231 383.4,231.8 C383.5,231.8 383.5,231.9 383.6,231.9 C385.7,233.1 387.1,239.4 388.4,245 C389.7,250.5 390.9,255.7 393,258.7 C394.5,260.9 398.2,263.4 401.2,265.1 C403,266.1 404.5,266.9 405,267.2 L404.9,264.6 C403.8,264.1 402.6,263.4 401.3,262.7 C398.3,261 395.2,258.9 394.3,257.5 C392.7,255.2 391.6,250.2 390.4,245.4 C388.8,238.5 387.1,231.4 383.5,229.4 C383.3,229.3 383.2,229.2 383,229.2 C379.7,227.8 378.3,232.6 376.9,237.7 C375.9,241.4 374.6,246 372.9,245 L372.8,244.9 C368.4,241.6 366.2,229.6 364.3,218.9 C362.4,206.2 360.2,194.1 354.2,190.6" id="Shape" fill="#F1F2F2"></path>
            <path d="M344.4,200.4 L344.2,200.3 C339.4,197.8 336.6,203.8 333.7,210.3 C331.1,215.9 328.5,221.7 325.1,219.9 C325.1,219.9 325.1,219.9 325,219.9 C323.4,219 321.1,214.5 319.1,210.6 C316.6,205.7 314.2,201 311.6,199.5 C311.4,199.4 311.2,199.3 311,199.2 C306.8,197.6 304.4,203 302.1,208.2 C300.4,212 298.7,215.9 296.5,216.4 C295.4,216.6 292.1,215 289,213.2 C287.7,212.4 286.4,211.6 285.3,211 L285.2,213.4 C285.8,213.8 287.3,214.8 289.1,215.8 C292.2,217.6 296,219.5 297.7,219.2 C300.3,218.6 302.1,214.6 304,210.4 C306,205.9 308.3,200.8 311.3,201.9 C311.4,201.9 311.5,202 311.5,202 C313.1,202.9 315.4,207.4 317.4,211.3 C319.9,216.2 322.3,221 324.9,222.5 C324.9,222.5 325,222.5 325,222.6 C329.8,225.2 332.6,219.1 335.5,212.6 C338.1,207 340.7,201.2 344.1,203 C344.1,203 344.2,203 344.2,203.1 C348.6,205.6 350.6,217.1 352.6,228.2 C354.9,240.8 357,252.7 362.8,257.1 C363,257.2 363.2,257.3 363.3,257.4 C366.6,259.3 367.9,254.5 369.3,249.4 C370.4,245.6 371.7,240.8 373.6,241.6 C373.7,241.6 373.7,241.7 373.8,241.7 C375.9,242.9 377.3,249.2 378.6,254.8 C379.9,260.3 381.1,265.5 383.2,268.5 C384.7,270.7 388.4,273.2 391.4,274.9 C393.2,275.9 394.7,276.7 395.2,277 L395.1,274.4 C394,273.9 392.8,273.2 391.5,272.5 C388.5,270.8 385.4,268.7 384.5,267.3 C382.9,265 381.8,260 380.6,255.2 C379,248.3 377.3,241.2 373.7,239.2 C373.5,239.1 373.4,239 373.2,239 C369.9,237.6 368.5,242.4 367.1,247.5 C366.1,251.2 364.8,255.8 363.1,254.8 L363,254.7 C358.6,251.4 356.4,239.4 354.5,228.7 C352.6,215.9 350.5,203.9 344.4,200.4" id="Shape" fill="url(#linearGradient-8)"></path>
            <polyline id="Shape" fill="#FFFFFF" points="331.700012 164.200012 295 143.100006 295 145.299988 331.700012 166.5 331.700012 164.200012"></polyline>
            <polyline id="Shape" fill="#FFFFFF" points="331.600006 170.100006 295 148.899994 295 151.200012 331.600006 172.299988 331.600006 170.100006"></polyline>
            <polyline id="Shape" fill="#FFFFFF" points="319.100006 168.700012 295 154.799988 295 157 319.100006 171 319.100006 168.700012"></polyline>
            <path d="M484.3,377.4 L458,362.3 C456.4,361.4 453.7,361.3 452.1,362.3 L403.7,390.4 C402.9,390.9 402.5,391.5 402.5,392.1 L402.5,394.3 C402.5,394.9 402.9,395.6 403.7,396.1 L430,411.3 C431.6,412.2 434.3,412.3 435.9,411.3 L484.3,383.2 C485.1,382.7 485.5,382.1 485.5,381.5 L485.5,379.3 C485.5,378.6 485.1,377.9 484.3,377.4 L484.3,377.4 Z" id="Shape" fill="url(#linearGradient-9)"></path>
            <path d="M475.8,372.3 L449.5,357.1 C447.9,356.2 445.2,356.1 443.6,357.1 L395.2,385.2 C394.4,385.7 394,386.3 394,386.9 L394,389.1 C394,389.7 394.4,390.4 395.2,390.9 L421.5,406.1 C423.1,407 425.8,407.1 427.4,406.1 L475.8,378 C476.6,377.5 477,376.9 477,376.3 L477,374.1 C477.1,373.4 476.7,372.8 475.8,372.3 L475.8,372.3 Z" id="Shape" fill="url(#linearGradient-10)"></path>
            <path d="M475.8,372.3 L449.5,357.1 C447.9,356.2 445.2,356.1 443.6,357.1 L395.2,385.2 C393.6,386.1 393.6,387.7 395.3,388.6 L421.6,403.8 C423.2,404.7 425.9,404.8 427.5,403.8 L475.9,375.7 C477.5,374.8 477.5,373.2 475.8,372.3" id="Shape" fill="url(#linearGradient-11)"></path>
            <path d="M475,373.9 L465.3,368.3 L462.7,369 L455.2,364.7 L456.5,363.2 L446.8,357.6 C446.3,357.3 445.4,357.3 444.9,357.6 L396.1,385.9 C395.6,386.2 395.6,386.7 396.1,387 L424.3,403.3 C424.8,403.6 425.7,403.6 426.2,403.3 L475,375 C475.6,374.7 475.6,374.2 475,373.9" id="Shape" fill="#D96197"></path>
            <path d="M408.4,396.9 L407,396.1 C406.8,396 406.7,396.1 406.7,396.3 C406.7,396.5 406.9,396.8 407,396.9 L408.4,397.7 C408.6,397.8 408.7,397.7 408.7,397.5 C408.7,397.3 408.6,397 408.4,396.9" id="Shape" fill="#58595B"></path>
            <path d="M412,399.2 C411.8,399.1 411.7,399.2 411.7,399.4 C411.7,399.6 411.8,399.8 412,399.9 C412.2,400 412.3,399.9 412.3,399.7 C412.3,399.5 412.2,399.3 412,399.2" id="Shape" fill="#58595B"></path>
            <path d="M413.2,399.9 C413,399.8 412.9,399.9 412.9,400.1 C412.9,400.3 413,400.5 413.2,400.6 C413.4,400.7 413.5,400.6 413.5,400.4 C413.5,400.2 413.4,400 413.2,399.9" id="Shape" fill="#58595B"></path>
            <path d="M414.4,400.5 C414.2,400.4 414.1,400.5 414.1,400.7 C414.1,400.9 414.2,401.1 414.4,401.2 C414.6,401.3 414.7,401.2 414.7,401 C414.7,400.9 414.6,400.6 414.4,400.5" id="Shape" fill="#58595B"></path>
            <path d="M415.6,401.2 C415.4,401.1 415.3,401.2 415.3,401.4 C415.3,401.6 415.4,401.8 415.6,401.9 C415.8,402 415.9,401.9 415.9,401.7 C415.8,401.5 415.7,401.3 415.6,401.2" id="Shape" fill="#58595B"></path>
            <path d="M416.7,401.9 C416.5,401.8 416.4,401.9 416.4,402.1 C416.4,402.3 416.5,402.5 416.7,402.6 C416.9,402.7 417,402.6 417,402.4 C417,402.2 416.9,402 416.7,401.9" id="Shape" fill="#58595B"></path>
            <path d="M447.5,358.1 C440.9,354.3 430.2,354.3 423.6,358.1 C420.3,360 418.7,362.5 418.7,365 L418.7,377.3 C418.6,379.9 420.2,382.5 423.7,384.5 C430.3,388.3 441,388.3 447.6,384.5 C451,382.5 452.6,380 452.5,377.4 L452.5,365.2 C452.5,362.6 450.9,360 447.5,358.1 L447.5,358.1 Z" id="Shape" fill="url(#linearGradient-12)"></path>
            <path d="M447.5,358.1 C440.9,354.3 430.2,354.3 423.6,358.1 C417,361.9 417,368.1 423.7,372 C430.3,375.8 441,375.8 447.6,372 C454.1,368.1 454.1,361.9 447.5,358.1" id="Shape" fill="#EE2A7B"></path>
            <path d="M447.5,358.1 L435.6,365 L452.5,365 C452.5,362.5 450.8,360 447.5,358.1" id="Shape" fill="#F48CA8"></path>
            <path d="M452.5,365 L435.6,365 L435.6,374.8 C439.9,374.8 444.3,373.8 447.6,371.9 C450.9,370 452.5,367.5 452.5,365" id="Shape" fill="#F06491"></path>
            <path d="M198.3,0.4 L3.6,112.8 C1.5,114 0.2,116.3 0.2,118.8 L0.6,260.6 C0.6,262.7 2.9,264 4.7,263 L199.4,150.6 C200.3,150.1 200.8,149.2 200.8,148.2 L200.4,1.7 C200.4,0.6 199.3,-0.1 198.3,0.4 L198.3,0.4 Z" id="Shape" fill="url(#linearGradient-13)"></path>
            <polyline id="Shape" fill="#FFDBC4" points="55.100006 195.700012 35.300003 207.200012 35.300003 219.100006 55.199997 207.600006 55.100006 195.700012"></polyline>
            <polyline id="Shape" fill="#E3B6CA" points="55.199997 207.600006 35.300003 219.100006 35.300003 231.100006 55.199997 219.600006 55.199997 207.600006"></polyline>
            <polyline id="Shape" fill="#FFDBC4" points="91.899994 119.5 72.100006 131 72.100006 143.399994 91.899994 131.899994 91.899994 119.5"></polyline>
            <polyline id="Shape" fill="#E3B6CA" points="91.899994 131.899994 72.100006 143.399994 72.300003 209.700012 92.100006 198.299988 91.899994 131.899994"></polyline>
            <polyline id="Shape" fill="#FFDBC4" points="128.899994 123.799988 109.100006 135.299988 109.100006 155.200012 129 143.799988 128.899994 123.799988"></polyline>
            <polyline id="Shape" fill="#E3B6CA" points="129 143.799988 109.100006 155.200012 109.199997 188.399994 129.100006 177 129 143.799988"></polyline>
            <polyline id="Shape" fill="#FFDBC4" points="165.700012 67.100006 145.899994 78.600006 146.100006 143.200012 165.899994 131.700012 165.700012 67.100006"></polyline>
            <polyline id="Shape" fill="#E3B6CA" points="165.899994 131.700012 146.100006 143.200012 146.100006 167.100006 166 155.600006 165.899994 131.700012"></polyline>
            <path d="M103.1,115.4 C103.1,115.8 103,116.2 102.8,116.6 L116.2,111 L116.2,110.6 C116.2,110.4 116.2,110.1 116.3,109.9 L103.1,115.4 M60.1,137.3 L46.2,182.5 C46.5,182.5 46.8,182.5 47,182.7 L61,137.1 C60.7,137.3 60.4,137.3 60.1,137.3 M84.4,107.5 C84.3,107.9 84.1,108.4 83.8,108.8 L98.1,116.6 C98.3,116.2 98.5,115.8 98.7,115.4 L84.4,107.5 M79.3,109.7 L63.2,130.5 C63.4,130.6 63.7,130.8 63.8,131 L79.7,110.5 C79.5,110.3 79.4,110 79.3,109.7 M134.9,73.1 L120.2,105.6 C120.5,105.6 120.7,105.7 121,105.9 L135.8,73.3 C135.4,73.3 135.1,73.2 134.9,73.1 M153.1,55.9 L139.2,67.2 C139.3,67.5 139.4,67.8 139.4,68.2 L153.3,56.9 C153.2,56.6 153.1,56.3 153.1,55.9" id="Shape" fill="#D1D3D4"></path>
            <path d="M45.2,182.9 C43.7,183.8 42.5,185.8 42.5,187.5 C42.5,189.2 43.7,189.9 45.2,189 C46.7,188.1 47.9,186.1 47.9,184.4 C47.9,183.6 47.6,183 47.1,182.7 C46.9,182.6 46.6,182.5 46.3,182.5 C45.9,182.5 45.5,182.6 45.2,182.9" id="Shape" fill="#D1D3D4"></path>
            <path d="M61.4,130.8 C59.9,131.7 58.7,133.7 58.7,135.4 C58.7,136.5 59.3,137.2 60.1,137.3 C60.4,137.3 60.7,137.3 61,137.1 C61.1,137 61.3,137 61.4,136.9 C62.9,136 64.1,134 64.1,132.3 C64.1,131.8 64,131.4 63.8,131 C63.6,130.8 63.4,130.6 63.2,130.5 C62.7,130.3 62.1,130.4 61.4,130.8" id="Shape" fill="#D1D3D4"></path>
            <path d="M81.9,104.5 C80.4,105.4 79.2,107.4 79.2,109.1 L79.2,109.6 C79.3,109.9 79.4,110.2 79.6,110.5 C80.1,111.1 80.9,111.2 81.9,110.6 C82.6,110.2 83.3,109.5 83.7,108.7 C83.9,108.3 84.1,107.9 84.3,107.4 C84.5,106.9 84.6,106.4 84.5,106 C84.6,104.3 83.4,103.7 81.9,104.5" id="Shape" fill="#D1D3D4"></path>
            <path d="M100.4,113.6 C99.7,114 99.1,114.6 98.7,115.3 C98.5,115.7 98.2,116.1 98.1,116.5 C97.9,117.1 97.8,117.6 97.8,118.2 C97.8,119.9 99,120.6 100.5,119.7 C101.6,119.1 102.5,117.8 102.9,116.6 C103,116.2 103.1,115.8 103.2,115.4 L103.2,115.1 C103.1,113.4 101.9,112.7 100.4,113.6" id="Shape" fill="#D1D3D4"></path>
            <path d="M118.9,106 C117.6,106.7 116.6,108.4 116.3,109.9 C116.3,110.2 116.2,110.4 116.2,110.6 L116.2,111 C116.4,112.4 117.5,112.9 118.9,112.1 C120.4,111.2 121.6,109.2 121.6,107.5 C121.6,106.7 121.3,106.2 120.9,105.9 C120.7,105.7 120.4,105.7 120.1,105.6 C119.8,105.6 119.4,105.7 118.9,106" id="Shape" fill="#D1D3D4"></path>
            <path d="M136.7,66.7 C135.2,67.6 134,69.6 134,71.3 C134,72.2 134.3,72.8 134.9,73.1 C135.1,73.2 135.4,73.3 135.7,73.2 C136,73.2 136.3,73 136.7,72.8 C138.2,71.9 139.4,69.9 139.4,68.2 L139.4,68.1 C139.4,67.7 139.3,67.4 139.2,67.1 C138.8,66.3 137.8,66.1 136.7,66.7" id="Shape" fill="#D1D3D4"></path>
            <path d="M155.7,51.2 C154.2,52.1 153,54.1 153,55.8 C153,55.8 153,55.8 153,55.9 C153,56.3 153.1,56.6 153.2,56.9 C153.6,57.8 154.6,58 155.7,57.4 C157.2,56.5 158.4,54.5 158.4,52.8 C158.4,51.1 157.2,50.4 155.7,51.2" id="Shape" fill="#D1D3D4"></path>
        </g>
    </g>
</svg>